# AST/ASF file generated using VICON BodyLanguage
# -----------------------------------------------
:version 1.10
:name VICON
:units
  mass 1.0
  length 0.45
  angle deg
:documentation
   .ast/.asf automatically generated from VICON data using
   VICON BodyBuilder and BodyLanguage model FoxedUp or BRILLIANT.MOD
:root
   order TX TY TZ RX RY RZ
   axis XYZ
   position 0 0 0  
   orientation 0 0 0 
:bonedata
  begin
     id 1 
     name lhipjoint
     direction 0.710188 -0.616876 0.339259 
     length 2.5669 
     axis 0 0 0  XYZ
  end
  begin
     id 2 
     name lfemur
     direction 0.34202 -0.939693 0  
     length 7.12796  
     axis 0 0 20  XYZ
    dof rx ry rz
    limits (-160.0 20.0)
           (-70.0 70.0)
           (-60.0 70.0)
  end
  begin
     id 3 
     name ltibia
     direction 0.34202 -0.939693 0   
     length 7.58108   
     axis 0 0 20   XYZ
    dof rx
    limits (-10.0 170.0)
  end
  begin
     id 4 
     name lfoot
     direction 0.0669471 -0.183936 0.980656   
     length 2.17365   
     axis -90 7.62852e-016 20   XYZ
    dof rx rz
    limits (-45.0 90.0)
           (-70.0 20.0)
  end
  begin
     id 5 
     name ltoes
     direction 1.53508e-011 -4.21705e-011 1   
     length 1.09427   
     axis -90 7.62852e-016 20   XYZ
    dof rx
    limits (-90.0 20.0)
  end
  begin
     id 6 
     name rhipjoint
     direction -0.700191 -0.625589 0.34405   
     length 2.53115  
     axis 0 0 0  XYZ 
  end
  begin
     id 7 
     name rfemur
     direction -0.34202 -0.939693 0   
     length 7.33006   
     axis 0 0 -20   XYZ
    dof rx ry rz
    limits (-160.0 20.0)
           (-70.0 70.0)
           (-70.0 60.0)
  end
  begin
     id 8 
     name rtibia
     direction -0.34202 -0.939693 0   
     length 7.64926   
     axis 0 0 -20   XYZ
    dof rx
    limits (-10.0 170.0)
 end
 begin
     id 9 
     name rfoot
     direction -0.0688927 -0.189281 0.979503   
     length 2.20493  
     axis -90 -7.62852e-016 -20   XYZ
    dof rx rz
    limits (-45.0 90.0)
           (-20.0 70.0)
  end
  begin
     id 10 
     name rtoes
     direction -1.53567e-011 -4.21933e-011 1   
     length 1.10919   
     axis -90 -7.62852e-016 -20   XYZ
    dof rx
    limits (-90.0 20.0)
  end
  begin
     id 11 
     name lowerback
     direction -0.0167868 0.989873 -0.140959   
     length 2.14596   
     axis 0 0 0   XYZ
    dof rx ry rz
    limits (-20.0 45.0)
           (-30.0 30.0)
           (-30.0 30.0)
  end
  begin
     id 12 
     name upperback
     direction 0.0129109 0.998033 0.0613525   
     length 2.10457   
     axis 0 0 0   XYZ
    dof rx ry rz
    limits (-20.0 45.0)
           (-30.0 30.0)
           (-30.0 30.0)
  end
  begin
     id 13 
     name thorax
     direction 0.0177047 0.991119 0.131797   
     length 2.17652   
     axis 0 0 0   XYZ
    dof rx ry rz
    limits (-20.0 45.0)
           (-30.0 30.0)
           (-30.0 30.0)
  end
  begin
     id 14 
     name lowerneck
     direction -0.0336893 0.997548 0.0613464   
     length 1.8912   
     axis 0 0 0   XYZ
    dof rx ry rz
    limits (-20.0 45.0)
           (-30.0 30.0)
           (-30.0 30.0)
  end
  begin
     id 15 
     name upperneck
     direction 0.0435909 0.997179 -0.0611028   
     length 1.8829   
     axis 0 0 0   XYZ
    dof rx ry rz
    limits (-20.0 45.0)
           (-30.0 30.0)
           (-30.0 30.0)
  end
  begin
     id 16
     name head
     direction 0.0175076 0.999444 -0.0283782  
     length 1.93197  
     axis 0 0 0   XYZ
    dof rx ry rz
    limits (-20.0 45.0)
           (-30.0 30.0)
           (-30.0 30.0)
  end
  begin
     id 17 
     name lclavicle
     direction 0.919164 0.389875 0.0559876  
     length 3.60004  
     axis 0 0 0   XYZ
    dof ry rz
    limits (-20.0 10.0)
           (0.0 20.0)
  end
  begin
     id 18 
     name lhumerus
     direction 1 -4.48958e-011 6.89191e-027   
     length 5.43301   
     axis 180 -30 -90   XYZ
    dof rx ry rz
    limits (-60.0 90.0)
           (-90.0 90.0)
           (-90.0 90.0)
  end
  begin
     id 19
     name lradius
     direction 1 -4.4897e-011 3.24727e-027   
     length 3.15936   
     axis 180 -30 -90   XYZ
    dof rx
    limits (-10.0 170.0)
  end
  begin
     id 20
     name lwrist
     direction 1 -4.4897e-011 9.00228e-027   
     length 1.57968   
     axis -6.29373e-015 90 90   XYZ
    dof ry
    limits (-180.0 0.0)
 end
  begin
     id 21 
     name lhand
     direction 1 -4.48968e-011 1.80042e-026   
     length 0.712827   
     axis -1.14882e-014 90 90   XYZ
    dof rx rz
    limits (-90.0 90.0)
           (-45.0 45.0)
  end
  begin
     id 22 
     name lfingers
     direction 1 -4.49019e-011 3.60267e-026   
     length 0.574699   
     axis -2.29769e-014 90 90   XYZ
    dof rx
    limits (0.0 90.0)
  end
  begin
     id 23
     name lthumb
     direction 0.707107 -6.3498e-011 0.707107   
     length 0.825157   
     axis -90 45 5.37419e-014   XYZ
    dof rx rz
    limits (-45.0 45.0)
           (-45.0 45.0)
  end
  begin
     id 24 
     name rclavicle
     direction -0.890334 0.455305 -0.00132111   
     length 3.51494  
     axis 0 0 0   XYZ 
    dof ry rz
    limits (-10.0 20.0)
           (-20.0 0.0)
  end
  begin
     id 25 
     name rhumerus
     direction -1 -4.48967e-011 5.07175e-028  
     length 5.34194   
     axis 180 30 90   XYZ
    dof rx ry rz
    limits (-90.0 60.0)
           (-90.0 90.0)
           (-90.0 90.0)
  end
  begin
     id 26 
     name rradius
     direction -1 -4.48955e-011 3.30467e-027   
     length 3.19351   
     axis 180 30 90   XYZ
    dof rx
    limits (-10.0 170.0)
  end
  begin
     id 27 
     name rwrist
     direction -1 -4.48968e-011 9.00208e-027   
     length 1.59676   
     axis -6.29373e-015 -90 -90   XYZ
    dof ry
    limits (-180.0 0.0)
  end
  begin
     id 28
     name rhand
     direction -1 -4.49e-011 1.80099e-026   
     length 0.743862   
     axis -1.14882e-014 -90 -90   XYZ
    dof rx rz
    limits (-90.0 90.0)
           (-45.0 45.0)
  end
  begin
     id 29
     name rfingers
     direction -1 -4.49009e-011 3.6023e-026   
     length 0.599721   
     axis -2.29769e-014 -90 -90   XYZ
    dof rx
    limits (0.0 90.0)
  end
  begin
     id 30
     name rthumb
     direction -0.707107 -6.35025e-011 0.707107   
     length 0.861083   
     axis -90 -45 -5.37419e-014   XYZ
    dof rx rz
    limits (-45.0 45.0)
           (-45.0 45.0)
  end
:hierarchy
  begin
    root lhipjoint rhipjoint lowerback
    lhipjoint lfemur
    lfemur ltibia
    ltibia lfoot
    lfoot ltoes
    rhipjoint rfemur
    rfemur rtibia
    rtibia rfoot
    rfoot rtoes
    lowerback upperback
    upperback thorax
    thorax lowerneck lclavicle rclavicle
    lowerneck upperneck
    upperneck head
    lclavicle lhumerus
    lhumerus lradius
    lradius lwrist
    lwrist lhand lthumb
    lhand lfingers
    rclavicle rhumerus
    rhumerus rradius
    rradius rwrist
    rwrist rhand rthumb
    rhand rfingers
  end

#!OML:ASF H:\Martial Arts Walks\Project 1\Capture day 1\Session 1\male.ASF
:FULLY-SPECIFIED
:DEGREES
612
root -8.03977 18.9383 -4.90135 -83.8746 35.8946 -90.5133
lowerback 24.9737 0.346966 -0.282857
upperback 4.14078 2.01327 10.0261
thorax -9.72705 1.39753 10.9666
lowerneck -0.179487 -9.73971 -14.2235
upperneck 11.4028 -15.5602 23.8784
head 6.52124 -7.20278 9.05703
rclavicle -7.95139e-015 1.90833e-014
rhumerus -37.7865 -14.3723 -41.2127
rradius 43.5721
rwrist -12.4148
rhand -24.6732 -38.5
rfingers 7.12502
rthumb 1.82715 -68.472
lclavicle -7.95139e-015 1.90833e-014
lhumerus 36.397 -35.8531 48.6926
lradius 82.2856
lwrist 5.11703
lhand 11.9711 -10.6071
lfingers 7.12502
lthumb 36.9934 15.4591
rfemur -31.794 -14.1492 -29.5708
rtibia 30.1221
rfoot -9.24975 -18.1161
rtoes -13.4694
lfemur -4.91266 18.323 25.6239
ltibia 2.60408e-014
lfoot 1.51033 21.5157
ltoes 20.4058
613
root -8.10174 18.8773 -4.82927 -83.9834 36.1733 -89.1918
lowerback 26.245 0.129012 -0.659933
upperback 4.67951 1.56064 9.42587
thorax -9.66983 1.15086 10.6517
lowerneck -0.480918 -9.37712 -13.8181
upperneck 12.1853 -15.1558 23.8094
head 6.69116 -6.9359 9.02199
rclavicle 7.95139e-015 3.18055e-014
rhumerus -35.7767 -15.2907 -42.9052
rradius 43.2107
rwrist -11.6596
rhand -24.5455 -39.0754
rfingers 7.12502
rthumb 1.95053 -69.0462
lclavicle 7.95139e-015 3.18055e-014
lhumerus 36.548 -36.4286 48.8681
lradius 82.2899
lwrist 5.70246
lhand 12.048 -10.4072
lfingers 7.12502
lthumb 37.0661 15.6402
rfemur -36.6875 -17.8829 -28.3139
rtibia 39.2046
rfoot -10.0412 -16.0134
rtoes -13.665
lfemur -3.31121 16.5718 25.84
ltibia -1.17283e-014
lfoot 0.651787 23.0914
ltoes 22.5164
614
root -8.15845 18.8234 -4.74952 -84.6207 36.7658 -88.3633
lowerback 27.2673 -0.0986363 -1.53365
upperback 5.51235 0.953985 8.95882
thorax -9.11667 0.830777 10.8401
lowerneck -1.07907 -9.16098 -13.6227
upperneck 12.9827 -14.9514 23.7933
head 6.98963 -6.75393 9.00491
rclavicle 2.8625e-014 4.77083e-014
rhumerus -33.2246 -16.2441 -44.568
rradius 42.837
rwrist -10.9394
rhand -24.2983 -39.7177
rfingers 7.12502
rthumb 2.18931 -69.6862
lclavicle 2.8625e-014 4.77083e-014
lhumerus 37.398 -36.7533 48.7635
lradius 82.3044
lwrist 7.04832
lhand 11.4147 -9.33117
lfingers 7.12502
lthumb 36.4669 16.8693
rfemur -40.9875 -21.1792 -27.5641
rtibia 48.2501
rfoot -10.52 -14.5465
rtoes -14.2993
lfemur -1.94282 14.3349 25.5782
ltibia -1.23246e-014
lfoot -0.0447842 24.7549
ltoes 23.8434
615
root -8.21304 18.8002 -4.65036 -84.7265 37.6202 -88.0066
lowerback 27.4682 -0.170651 -2.69726
upperback 6.03059 0.435789 8.44604
thorax -8.51168 0.551756 11.1001
lowerneck -1.3903 -9.15434 -13.381
upperneck 13.5008 -15.0669 24.0134
head 7.23671 -6.74301 9.03378
rclavicle 1.59028e-014 -5.08889e-014
rhumerus -31.5055 -16.9623 -46.0631
rradius 42.9134
rwrist -10.7915
rhand -23.8804 -40.0492
rfingers 7.12502
rthumb 2.59286 -70.0132
lclavicle 1.59028e-014 -5.08889e-014
lhumerus 39.0303 -37.5723 48.2613
lradius 82.3238
lwrist 8.92408
lhand 10.9776 -7.05791
lfingers 7.12502
lthumb 36.053 19.2456
rfemur -45.9209 -24.7069 -26.9263
rtibia 57.5744
rfoot -11.8565 -13.4374
rtoes -13.3323
lfemur -1.60374 12.4067 24.8665
ltibia -1.11319e-014
lfoot -0.814786 26.2263
ltoes 24.9441
616
root -8.2627 18.7663 -4.51947 -84.8708 38.5853 -87.8761
lowerback 27.6471 -0.242033 -4.01676
upperback 6.27183 -0.10945 8.38468
thorax -7.94239 0.209991 11.226
lowerneck -1.50792 -9.15632 -13.5288
upperneck 13.914 -15.1976 24.3632
head 7.46335 -6.77172 9.18695
rclavicle 2.38542e-014 -2.54444e-014
rhumerus -30.2095 -17.1603 -47.3804
rradius 43.4619
rwrist -11.2486
rhand -23.7335 -40.5461
rfingers 7.12502
rthumb 2.73471 -70.5084
lclavicle 2.38542e-014 -2.54444e-014
lhumerus 40.5981 -38.4438 47.8479
lradius 82.3581
lwrist 10.7434
lhand 10.144 -4.55882
lfingers 7.12502
lthumb 35.2629 21.9354
rfemur -51.0706 -28.4746 -26.2195
rtibia 66.932
rfoot -13.024 -12.4523
rtoes -10.8579
lfemur -1.52828 10.4239 24.0694
ltibia 2.97183e-014
lfoot -0.943154 27.5823
ltoes 25.2184
617
root -8.3016 18.7225 -4.36637 -85.5866 38.4165 -88.1394
lowerback 28.1699 -0.46709 -4.19033
upperback 6.64899 -0.459257 8.31248
thorax -7.68269 0.0191373 11.3532
lowerneck -1.45435 -9.23807 -13.5193
upperneck 14.1627 -15.4171 24.6006
head 7.60334 -6.8595 9.2598
rclavicle 2.54444e-014 5.725e-014
rhumerus -29.4953 -17.1303 -48.4762
rradius 44.4507
rwrist -12.4999
rhand -23.7147 -40.4955
rfingers 7.12502
rthumb 2.75291 -70.4575
lclavicle 2.54444e-014 5.725e-014
lhumerus 42.0243 -39.5212 47.4509
lradius 82.6605
lwrist 12.1615
lhand 9.33136 -2.1918
lfingers 7.12502
lthumb 34.4919 24.4814
rfemur -56.0191 -32.0187 -24.1468
rtibia 76.3086
rfoot -16.3639 -11.3934
rtoes -4.93988
lfemur -1.42092 8.09031 24.6533
ltibia -5.41688e-015
lfoot -0.372703 28.8581
ltoes 24.4036
618
root -8.33063 18.6615 -4.19974 -86.2282 38.196 -88.739
lowerback 28.5508 -0.785437 -4.24982
upperback 6.86465 -0.879338 8.40512
thorax -7.5242 -0.199093 11.6291
lowerneck -1.49869 -9.32191 -13.4676
upperneck 14.4386 -15.582 24.4992
head 7.72288 -6.92855 9.19776
rclavicle 7.79236e-014 2.54444e-014
rhumerus -28.8688 -16.716 -49.3183
rradius 45.6315
rwrist -14.044
rhand -23.6915 -40.4629
rfingers 7.12502
rthumb 2.7753 -70.4246
lclavicle 7.79236e-014 2.54444e-014
lhumerus 42.9207 -40.4601 47.2944
lradius 83.0931
lwrist 12.9982
lhand 9.02837 -0.587101
lfingers 7.12502
lthumb 34.2042 26.1511
rfemur -61.2196 -36.193 -21.5967
rtibia 85.3487
rfoot -16.0302 -9.89216
rtoes -4.56264
lfemur -1.79221 5.77388 25.3005
ltibia 1.6524e-015
lfoot 0.418032 30.3636
ltoes 24.2046
